<?xml version="1.0" encoding="UTF-8"?>
<svg version="1.1" xmlns="http://www.w3.org/2000/svg" width="367" height="278">
<path d="M0 0 C0.68835938 0.51046875 1.37671875 1.0209375 2.0859375 1.546875 C8.77761121 6.88963424 16.17353604 15.47382286 18 24 C18.97732401 23.97234621 19.95464802 23.94469242 20.96158791 23.91620064 C44.87904543 23.24652439 68.79527219 22.75553485 92.72016335 22.44563484 C104.29146569 22.29172721 115.85653329 22.08246164 127.42382812 21.73681641 C137.52123746 21.43524028 147.61413099 21.24368242 157.7159189 21.17734516 C163.0546096 21.13862169 168.3803998 21.04959702 173.71489334 20.8280983 C209.84523802 19.38478298 209.84523802 19.38478298 224.73658931 32.71062601 C231.440015 39.10887003 238.1782605 46.04786831 243 54 C242.50117954 58.48508873 239.50058611 60.79333913 236.375 63.75 C235.27023169 64.82226078 234.1673584 65.89647756 233.06640625 66.97265625 C232.53418457 67.49230957 232.00196289 68.01196289 231.45361328 68.54736328 C229.64708582 70.35267709 227.96750165 72.24297088 226.3125 74.1875 C225.76078125 74.80109375 225.2090625 75.4146875 224.640625 76.046875 C222.9173173 78.01471472 222.9173173 78.01471472 221.421875 80.453125 C218.53857315 84.30560395 216.15068137 86.60022356 211.28125 87.50537109 C192.78511063 89.39255531 192.78511063 89.39255531 188 87 C188 80.4 188 73.8 188 67 C181.4 67 174.8 67 168 67 C168 73.27 168 79.54 168 86 C163.13007593 88.43496203 160.16432826 88.64914003 155 87 C151.90689824 84.87681113 149.46577518 82.31992398 146.9375 79.5625 C146.26267578 78.86833984 145.58785156 78.17417969 144.89257812 77.45898438 C140 72.33838336 140 72.33838336 140 70 C136.74957109 71.39506426 134.92628208 72.96783394 132.6875 75.6875 C129.31967324 79.67494857 125.73978684 83.36251736 122 87 C117.71357676 85.33536962 114.91382783 82.20924163 111.75 79 C111.19570312 78.4534375 110.64140625 77.906875 110.0703125 77.34375 C106 73.2533867 106 73.2533867 106 71 C105.401875 70.71125 104.80375 70.4225 104.1875 70.125 C102 69 102 69 99 67 C98.73646729 67.59022949 98.47293457 68.18045898 98.20141602 68.78857422 C96.95023299 71.09160527 95.65195022 72.56361442 93.77734375 74.3828125 C93.15666016 74.99253906 92.53597656 75.60226563 91.89648438 76.23046875 C91.25001953 76.85566406 90.60355469 77.48085937 89.9375 78.125 C88.6527607 79.37536074 87.37010319 80.62786516 86.08984375 81.8828125 C85.52128662 82.43340332 84.95272949 82.98399414 84.36694336 83.55126953 C82.89270095 84.97414012 82.89270095 84.97414012 82 87 C74.81322105 88.22530362 67.81450354 87.95505043 60.5546875 87.67578125 C58.15503165 87.61446863 55.75528497 87.55662962 53.35546875 87.50195312 C49.60279579 87.41553479 45.85521019 87.3116452 42.10498047 87.1496582 C28.2317135 85.82468841 28.2317135 85.82468841 15.92749023 90.51806641 C14.13383364 93.64773286 13.03525448 96.5552075 12 100 C4.19924563 112.11589879 -8.86895483 119.16997919 -22 124 C-22.74636719 124.30808594 -23.49273437 124.61617187 -24.26171875 124.93359375 C-39.39981031 130.7817659 -58.37176143 128.21065403 -73 122 C-92.58691257 113.26819732 -105.14362385 97.99080076 -113.0703125 78.34765625 C-119.21124669 60.90859556 -117.12461552 40.65630902 -109.23828125 24.1484375 C-105.10972193 16.17615744 -99.63868213 9.04638335 -93 3 C-92.34 3 -91.68 3 -91 3 C-91 2.34 -91 1.68 -91 1 C-64.47647488 -21.70849753 -27.25645855 -20.96650658 0 0 Z M-83.375 40.3125 C-88.02522173 45.0734413 -89.43020469 49.33524709 -89.4375 55.9375 C-89.26574225 63.34650473 -88.0031552 66.91104037 -82.8125 72.25 C-78.0552468 75.21006866 -73.86968579 77.34593473 -68.1484375 76.65625 C-62.18011367 75.17623439 -57.54713031 73.48332722 -53.8203125 68.38671875 C-50.3309818 62.57517831 -50.11950066 56.61708595 -51 50 C-52.60741014 44.70500188 -55.16938429 40.83536139 -60 38 C-68.81347511 34.82879634 -75.51525918 34.1751709 -83.375 40.3125 Z " fill="#6368ED" transform="translate(121,83)"/>
<path d="M0 0 C0.99 0 1.98 0 3 0 C3 1.32 3 2.64 3 4 C3.69480469 4.24492188 4.38960938 4.48984375 5.10546875 4.7421875 C8.43926852 6.19088322 11.31517321 8.09910836 14.3125 10.125 C38.7042814 26.12927293 66.82545082 35.00359206 95.83203125 37.546875 C97.29153198 37.67594238 97.29153198 37.67594238 98.78051758 37.80761719 C99.87916138 37.90284668 99.87916138 37.90284668 101 38 C101.02560061 44.45547629 101.04297078 50.91093924 101.05493164 57.36645508 C101.05992418 59.55721526 101.06672055 61.74797218 101.07543945 63.9387207 C101.08772975 67.10889499 101.09327923 70.27902478 101.09765625 73.44921875 C101.10281754 74.41018967 101.10797882 75.37116058 101.11329651 76.36125183 C101.11388376 83.66965751 100.56516192 90.65289498 100 98 C67 98 34 98 0 98 C-0.81461232 93.9269384 -1.12172822 90.74238413 -1.11352539 86.64916992 C-1.11341209 84.75777534 -1.11341209 84.75777534 -1.11329651 82.82817078 C-1.10819069 81.46226969 -1.1029747 80.09636902 -1.09765625 78.73046875 C-1.0957897 77.32513988 -1.09436692 75.91981035 -1.09336853 74.51448059 C-1.089562 70.82705875 -1.07974774 67.1396767 -1.06866455 63.45227051 C-1.05841025 59.68498269 -1.05386232 55.9176884 -1.04882812 52.15039062 C-1.0381237 44.766909 -1.0210698 37.38346009 -1 30 C-1.89429718 30.55311859 -2.78859436 31.10623718 -3.70999146 31.67611694 C-4.89403456 32.40700866 -6.07810802 33.1378512 -7.26220703 33.86865234 C-7.85036697 34.23260605 -8.43852692 34.59655975 -9.04450989 34.97154236 C-15.18657591 38.7595402 -21.45214177 41.96018023 -28 45 C-29.07894531 45.50273438 -30.15789062 46.00546875 -31.26953125 46.5234375 C-45.77591114 52.79019361 -62.24613301 57.51159784 -78 59 C-78 59.66 -78 60.32 -78 61 C-88.395 59.515 -88.395 59.515 -99 58 C-99 51.4 -99 44.8 -99 38 C-96.87498047 37.76216797 -96.87498047 37.76216797 -94.70703125 37.51953125 C-63.8030101 33.89432398 -24.50635904 25.63186229 -2.0625 2.0625 C-1.381875 1.381875 -0.70125 0.70125 0 0 Z " fill="#E6E6E6" transform="translate(180,1)"/>
<path d="M0 0 C4.00095099 0.51170961 5.86355937 1.39144217 8.59375 4.34375 C9.23183594 5.01277344 9.86992187 5.68179688 10.52734375 6.37109375 C11.84244792 7.79036458 13.15755208 9.20963542 14.47265625 10.62890625 C15.42978516 11.63244141 15.42978516 11.63244141 16.40625 12.65625 C17.26186523 13.58147461 17.26186523 13.58147461 18.13476562 14.52539062 C20.44242385 16.34976964 22.07671377 16.80824652 25 17 C27.61204996 14.88965683 27.61204996 14.88965683 30 12 C33.33333333 8.66666667 36.66666667 5.33333333 40 2 C42.35988131 3.97459457 44.68668811 5.971952 47 8 C47.67933594 8.57621094 48.35867188 9.15242187 49.05859375 9.74609375 C49.69925781 10.32488281 50.33992187 10.90367187 51 11.5 C51.598125 12.0259375 52.19625 12.551875 52.8125 13.09375 C54 15 54 15 53.87109375 17.76171875 C52.88582498 21.42444435 51.5977114 24.85353604 50.0625 28.3125 C49.75602539 29.00327637 49.44955078 29.69405273 49.13378906 30.40576172 C40.93104489 48.38620933 29.50570961 63.66635417 16 78 C15.43023437 78.61101562 14.86046875 79.22203125 14.2734375 79.8515625 C3.03734929 91.51366354 -11.20509648 102.40899375 -25.63671875 109.78515625 C-27.7771082 110.88542256 -29.77783959 112.09391752 -31.8125 113.375 C-35.44355657 115.22612688 -36.97787733 115.40651656 -41 115 C-43.73185512 113.87528944 -46.1770819 112.72532379 -48.75 111.3125 C-49.48444336 110.91458252 -50.21888672 110.51666504 -50.97558594 110.10668945 C-67.2672079 101.01726165 -80.8804114 89.1195886 -94 76 C-94.63421875 75.40058594 -95.2684375 74.80117187 -95.921875 74.18359375 C-102.70250052 67.70722707 -109.88121171 59.97882735 -113 51 C-112.09636719 50.45730469 -111.19273438 49.91460937 -110.26171875 49.35546875 C-109.07017612 48.63303739 -107.8787774 47.91036864 -106.6875 47.1875 C-106.09259766 46.83107422 -105.49769531 46.47464844 -104.88476562 46.10742188 C-102.47613756 44.6407154 -100.2793374 43.29503786 -98.33203125 41.23828125 C-97 40 -97 40 -93 40 C-91.40234375 41.828125 -91.40234375 41.828125 -89.9375 44.25 C-88.46331702 46.6431034 -87.03948772 48.94905993 -85.31640625 51.171875 C-84 53 -84 53 -84 55 C-83.15308594 55.33644531 -83.15308594 55.33644531 -82.2890625 55.6796875 C-79.33159539 57.3855303 -77.59227165 59.53216442 -75.375 62.125 C-70.70716936 67.4284058 -65.68926886 71.82194318 -60 76 C-59.175 76.60585937 -58.35 77.21171875 -57.5 77.8359375 C-53.3752583 80.78770578 -49.17713814 83.51136546 -44.82421875 86.11474609 C-43.92147217 86.65505463 -43.01872559 87.19536316 -42.08862305 87.75204468 C-41.39937744 88.16386993 -40.71013184 88.57569519 -40 89 C-40.00222061 88.15919388 -40.00444122 87.31838776 -40.00672913 86.45210266 C-40.02678043 78.52166002 -40.04199884 70.59122592 -40.05181217 62.66076374 C-40.05702692 58.58380869 -40.064099 54.50687462 -40.07543945 50.42993164 C-40.08631837 46.49420656 -40.09228745 42.55850164 -40.09487724 38.62276268 C-40.09672247 37.12249624 -40.10032572 35.62223088 -40.10573006 34.12197304 C-40.11300691 32.01789607 -40.11398814 29.91390201 -40.11352539 27.80981445 C-40.115746 26.61290482 -40.11796661 25.41599518 -40.12025452 24.18281555 C-40.01236103 21.32716348 -39.65908702 18.77376413 -39 16 C-38.26885986 15.99589111 -37.53771973 15.99178223 -36.78442383 15.98754883 C-33.45963693 15.95457791 -30.13667384 15.88392853 -26.8125 15.8125 C-25.66201172 15.80669922 -24.51152344 15.80089844 -23.32617188 15.79492188 C-16.65268179 15.73189953 -16.65268179 15.73189953 -10.9296875 12.67578125 C-9.97449219 11.35126953 -9.97449219 11.35126953 -9 10 C-8.35675781 9.36835938 -7.71351563 8.73671875 -7.05078125 8.0859375 C-6.47714844 7.52132812 -5.90351563 6.95671875 -5.3125 6.375 C-4.73113281 5.80523437 -4.14976562 5.23546875 -3.55078125 4.6484375 C-1.79748102 2.87617026 -1.79748102 2.87617026 0 0 Z " fill="#E5E5E5" transform="translate(219,163)"/>
<path d="M0 0 C3.47510485 0.79588811 6.16513863 2.05734202 9.2890625 3.80078125 C10.31386719 4.36603516 11.33867187 4.93128906 12.39453125 5.51367188 C14.52530598 6.70015527 16.65552711 7.88763348 18.78515625 9.07617188 C25.05678207 12.53300433 31.27307984 15.54390192 38 18 C38.6909375 18.25934326 39.381875 18.51868652 40.09375 18.78588867 C52.81506332 23.47455719 65.72652452 26.28133635 79 29 C79 42.2 79 55.4 79 69 C52.93 69 26.86 69 0 69 C-0.82941185 64.85294077 -1.09561627 61.71971663 -1.02172852 57.55737305 C-1.00163223 56.27642258 -0.98153595 54.99547211 -0.96083069 53.67570496 C-0.93363847 52.28770728 -0.90632756 50.89971192 -0.87890625 49.51171875 C-0.85458547 48.08397707 -0.83074291 46.65622716 -0.80735779 45.22846985 C-0.74471149 41.48178704 -0.67559045 37.73525088 -0.60510254 33.9887085 C-0.53424269 30.1611597 -0.46953158 26.33350744 -0.40429688 22.50585938 C-0.27553554 15.00379176 -0.13993118 7.50186847 0 0 Z " fill="#464646" transform="translate(180,30)"/>
<path d="M0 0 C4.00095099 0.51170961 5.86355937 1.39144217 8.59375 4.34375 C9.23183594 5.01277344 9.86992187 5.68179688 10.52734375 6.37109375 C11.84244792 7.79036458 13.15755208 9.20963542 14.47265625 10.62890625 C15.11074219 11.29792969 15.74882812 11.96695313 16.40625 12.65625 C16.97666016 13.27306641 17.54707031 13.88988281 18.13476562 14.52539062 C20.45416774 16.35905408 22.06142223 16.79885424 25 17 C28.29248108 15.16682624 28.29248108 15.16682624 31 13 C30.48726091 18.58235655 29.01448695 22.7350239 26.4375 27.6875 C26.08252441 28.38230469 25.72754883 29.07710937 25.36181641 29.79296875 C22.02589367 36.19135383 18.20234792 42.13060497 14 48 C13.41734375 48.83015625 12.8346875 49.6603125 12.234375 50.515625 C9.29085711 54.60225663 9.29085711 54.60225663 8 56 C7.34 56 6.68 56 6 56 C5.76023438 56.56589844 5.52046875 57.13179687 5.2734375 57.71484375 C3.73639857 60.47302711 1.87656882 62.3520728 -0.375 64.5625 C-1.14585937 65.32691406 -1.91671875 66.09132813 -2.7109375 66.87890625 C-8.23756906 72 -8.23756906 72 -11 72 C-11 72.66 -11 73.32 -11 74 C-13.11198388 75.69739814 -15.21757712 77.26757852 -17.4375 78.8125 C-18.07550537 79.25956299 -18.71351074 79.70662598 -19.37084961 80.16723633 C-32.49341641 89.26406934 -32.49341641 89.26406934 -36.62280273 88.5402832 C-37.40727783 88.36198975 -38.19175293 88.18369629 -39 88 C-39.1438258 80.22618106 -39.28606893 72.45233428 -39.42724609 64.6784668 C-39.4753898 62.03750971 -39.52388702 59.39655904 -39.57275391 56.75561523 C-39.64319797 52.94516635 -39.71234292 49.1346957 -39.78125 45.32421875 C-39.80312378 44.15606125 -39.82499756 42.98790375 -39.84753418 41.78434753 C-39.9058165 38.52295646 -39.95558598 35.2616073 -40 32 C-40.01603271 30.97758209 -40.03206543 29.95516418 -40.04858398 28.90176392 C-40.05768799 27.93749481 -40.06679199 26.97322571 -40.07617188 25.97973633 C-40.08579956 25.1370369 -40.09542725 24.29433746 -40.10534668 23.42610168 C-39.99403272 20.86257538 -39.56554316 18.49948261 -39 16 C-38.26885986 15.99589111 -37.53771973 15.99178223 -36.78442383 15.98754883 C-33.45963693 15.95457791 -30.13667384 15.88392853 -26.8125 15.8125 C-25.66201172 15.80669922 -24.51152344 15.80089844 -23.32617188 15.79492188 C-16.65268179 15.73189953 -16.65268179 15.73189953 -10.9296875 12.67578125 C-10.29289062 11.79277344 -9.65609375 10.90976563 -9 10 C-8.35675781 9.36835938 -7.71351563 8.73671875 -7.05078125 8.0859375 C-6.19033203 7.23902344 -6.19033203 7.23902344 -5.3125 6.375 C-4.73113281 5.80523437 -4.14976562 5.23546875 -3.55078125 4.6484375 C-1.79748102 2.87617026 -1.79748102 2.87617026 0 0 Z " fill="#444444" transform="translate(219,163)"/>
<path d="M0 0 C24.51337288 -0.70476543 49.0252024 -1.23170893 73.54670906 -1.55436516 C84.93646467 -1.70825714 96.31988384 -1.91748784 107.70556641 -2.26318359 C117.64476337 -2.56481349 127.57937096 -2.75632898 137.52301776 -2.82265484 C142.77796458 -2.86137083 148.0198012 -2.9503328 153.27048111 -3.1719017 C172.28546314 -3.94385273 188.84576944 -4.59418549 203.69329202 8.71062601 C210.40159691 15.11650952 217.15477754 22.05231616 222 30 C221.50262947 34.48500289 218.50019634 36.79370783 215.375 39.75 C214.27023169 40.82226078 213.1673584 41.89647756 212.06640625 42.97265625 C211.53418457 43.49230957 211.00196289 44.01196289 210.45361328 44.54736328 C208.64708582 46.35267709 206.96750165 48.24297088 205.3125 50.1875 C204.76078125 50.80109375 204.2090625 51.4146875 203.640625 52.046875 C201.9173173 54.01471472 201.9173173 54.01471472 200.421875 56.453125 C197.53857315 60.30560395 195.15068137 62.60022356 190.28125 63.50537109 C171.78511063 65.39255531 171.78511063 65.39255531 167 63 C167 56.4 167 49.8 167 43 C160.4 43 153.8 43 147 43 C147 49.27 147 55.54 147 62 C142.13007593 64.43496203 139.16432826 64.64914003 134 63 C130.90689824 60.87681113 128.46577518 58.31992398 125.9375 55.5625 C125.26267578 54.86833984 124.58785156 54.17417969 123.89257812 53.45898438 C119 48.33838336 119 48.33838336 119 46 C115.74957109 47.39506426 113.92628208 48.96783394 111.6875 51.6875 C108.31967324 55.67494857 104.73978684 59.36251736 101 63 C96.71357676 61.33536962 93.91382783 58.20924163 90.75 55 C90.19570312 54.4534375 89.64140625 53.906875 89.0703125 53.34375 C85 49.2533867 85 49.2533867 85 47 C84.401875 46.71125 83.80375 46.4225 83.1875 46.125 C81 45 81 45 78 43 C77.60470093 43.88534424 77.60470093 43.88534424 77.20141602 44.78857422 C75.95023299 47.09160527 74.65195022 48.56361442 72.77734375 50.3828125 C71.84631836 51.29740234 71.84631836 51.29740234 70.89648438 52.23046875 C70.25001953 52.85566406 69.60355469 53.48085937 68.9375 54.125 C67.6527607 55.37536074 66.37010319 56.62786516 65.08984375 57.8828125 C64.52128662 58.43340332 63.95272949 58.98399414 63.36694336 59.55126953 C61.89270095 60.97414012 61.89270095 60.97414012 61 63 C52.99918216 64.44135553 45.02502856 63.90927919 36.9375 63.5625 C35.58140424 63.50915126 34.22528435 63.45641226 32.86914062 63.40429688 C29.57914043 63.27550683 26.28951383 63.14058296 23 63 C23 62.67 23 62.34 23 62 C33.89 61.67 44.78 61.34 56 61 C56 59.35 56 57.7 56 56 C58 54.1875 58 54.1875 60 53 C60.66 53.66 61.32 54.32 62 55 C62.598125 54.01 63.19625 53.02 63.8125 52 C64.534375 51.01 65.25625 50.02 66 49 C66.99 49 67.98 49 69 49 C69 48.34 69 47.68 69 47 C69.66 47 70.32 47 71 47 C70.67 46.01 70.34 45.02 70 44 C70.804375 43.87625 71.60875 43.7525 72.4375 43.625 C73.283125 43.41875 74.12875 43.2125 75 43 C75.495 42.01 75.495 42.01 76 41 C78.5625 40.375 78.5625 40.375 81 40 C81.5775 40.804375 82.155 41.60875 82.75 42.4375 C84.98126893 44.97866739 85.74456771 45.65120368 89 46 C88.67 46.99 88.34 47.98 88 49 C90.90600261 50.25664978 92.79604584 51 96 51 C96 51.99 96 52.98 96 54 C97.98 54 99.96 54 102 54 C102 54.66 102 55.32 102 56 C102.66 56 103.32 56 104 56 C104.33 55.01 104.66 54.02 105 53 C105.66 52.01 106.32 51.02 107 50 C106.67 49.01 106.34 48.02 106 47 C110.30322683 45.53060547 114.62297367 44.22556737 119 43 C119.350625 43.495 119.70125 43.99 120.0625 44.5 C122.06111104 46.36347783 122.06111104 46.36347783 125.5625 46 C126.696875 46 127.83125 46 129 46 C131.12508244 49.18762365 131.5020163 51.26512223 132 55 C133.32 55 134.64 55 136 55 C136 54.34 136 53.68 136 53 C142.75 51.875 142.75 51.875 145 53 C144.835 52.46375 144.67 51.9275 144.5 51.375 C143.85595226 48.31577322 143.56214727 46.12751951 144 43 C145.6828347 40.58811965 147.52594369 38.60019239 150 37 C151.32 37 152.64 37 154 37 C154 37.66 154 38.32 154 39 C154.60328125 38.91621094 155.2065625 38.83242187 155.828125 38.74609375 C156.62734375 38.64425781 157.4265625 38.54242188 158.25 38.4375 C159.43335938 38.28087891 159.43335938 38.28087891 160.640625 38.12109375 C163.00532874 37.99972651 164.7511037 38.30366743 167 39 C167 39.66 167 40.32 167 41 C167.99 41 168.98 41 170 41 C169.98259766 42.44632813 169.98259766 42.44632813 169.96484375 43.921875 C169.95582031 45.18515625 169.94679688 46.4484375 169.9375 47.75 C169.92009766 49.62945312 169.92009766 49.62945312 169.90234375 51.546875 C169.98067103 54.31652762 170.31764979 56.36895595 171 59 C170.67 59.66 170.34 60.32 170 61 C171.11375 60.7215625 171.11375 60.7215625 172.25 60.4375 C176.72441529 59.91548488 180.74596287 60.43902298 185.1953125 61.0390625 C188.52926078 60.99262868 189.53651684 60.13501874 192 58 C192.66 58 193.32 58 194 58 C194 57.01 194 56.02 194 55 C194.66 55 195.32 55 196 55 C196 54.34 196 53.68 196 53 C198.475 52.505 198.475 52.505 201 52 C201.3403125 50.6696875 201.3403125 50.6696875 201.6875 49.3125 C203.57783385 44.54165742 206.3666869 41.96513956 210.75 39.375 C213.31074335 38.14209872 213.31074335 38.14209872 214 35 C216.0625 33.8125 216.0625 33.8125 218 33 C217.34410262 31.01735205 217.34410262 31.01735205 216 29 C215.154375 28.71125 214.30875 28.4225 213.4375 28.125 C212.2309375 27.568125 212.2309375 27.568125 211 27 C210.1875 23.875 210.1875 23.875 210 21 C209.05125 21.185625 208.1025 21.37125 207.125 21.5625 C204 22 204 22 202 21 C202 19.35 202 17.7 202 16 C200.02 15.505 200.02 15.505 198 15 C198 14.34 198 13.68 198 13 C196.02 12.01 196.02 12.01 194 11 C194 10.34 194 9.68 194 9 C192.35 9.33 190.7 9.66 189 10 C189 9.01 189 8.02 189 7 C190.32 7 191.64 7 193 7 C193 6.34 193 5.68 193 5 C189.39007621 5.65585189 189.39007621 5.65585189 186 7 C186 6.01 186 5.02 186 4 C140.79 4 95.58 4 49 4 C49 3.67 49 3.34 49 3 C24.745 2.505 24.745 2.505 0 2 C0 1.34 0 0.68 0 0 Z " fill="#393ED9" transform="translate(142,107)"/>
<path d="M0 0 C1.62579537 1.38421132 3.2263272 2.79802397 4.8203125 4.21875 C2.48817102 5.42503008 0.32389111 6.3842238 -2.1796875 7.21875 C-2.1796875 6.55875 -2.1796875 5.89875 -2.1796875 5.21875 C-1.5196875 5.21875 -0.8596875 5.21875 -0.1796875 5.21875 C-0.1796875 4.55875 -0.1796875 3.89875 -0.1796875 3.21875 C-1.0665625 3.0125 -1.9534375 2.80625 -2.8671875 2.59375 C-6.1796875 1.21875 -6.1796875 1.21875 -8.5546875 -1.78125 C-12.02741221 -5.75007824 -14.03571579 -6.03454443 -19.1796875 -6.78125 C-20.1696875 -6.45125 -21.1596875 -6.12125 -22.1796875 -5.78125 C-23.1696875 -6.44125 -24.1596875 -7.10125 -25.1796875 -7.78125 C-25.1796875 -9.10125 -25.1796875 -10.42125 -25.1796875 -11.78125 C-25.8396875 -11.78125 -26.4996875 -11.78125 -27.1796875 -11.78125 C-27.1796875 -12.44125 -27.1796875 -13.10125 -27.1796875 -13.78125 C-28.2521875 -13.595625 -29.3246875 -13.41 -30.4296875 -13.21875 C-33.7335742 -12.83329655 -35.14019374 -12.94276896 -38.1796875 -13.78125 C-40.36672135 -13.40217718 -40.36672135 -13.40217718 -42.1796875 -12.78125 C-42.6746875 -13.77125 -42.6746875 -13.77125 -43.1796875 -14.78125 C-44.2728125 -14.78125 -45.3659375 -14.78125 -46.4921875 -14.78125 C-48.72135417 -14.78125 -50.95052083 -14.78125 -53.1796875 -14.78125 C-53.5096875 -14.12125 -53.8396875 -13.46125 -54.1796875 -12.78125 C-54.86675781 -12.81605469 -55.55382812 -12.85085937 -56.26171875 -12.88671875 C-57.61330078 -12.92732422 -57.61330078 -12.92732422 -58.9921875 -12.96875 C-59.88550781 -13.00355469 -60.77882812 -13.03835937 -61.69921875 -13.07421875 C-64.66078971 -12.7244269 -65.22718354 -11.91278011 -67.1796875 -9.78125 C-68.1696875 -9.78125 -69.1596875 -9.78125 -70.1796875 -9.78125 C-72.34635417 -8.94791667 -72.34635417 -8.94791667 -73.1796875 -6.78125 C-75.6546875 -7.27625 -75.6546875 -7.27625 -78.1796875 -7.78125 C-78.1796875 -7.12125 -78.1796875 -6.46125 -78.1796875 -5.78125 C-79.1078125 -5.3790625 -79.1078125 -5.3790625 -80.0546875 -4.96875 C-82.4792108 -3.82568152 -82.4792108 -3.82568152 -84.1796875 -0.78125 C-84.1796875 0.20875 -84.1796875 1.19875 -84.1796875 2.21875 C-84.8396875 1.88875 -85.4996875 1.55875 -86.1796875 1.21875 C-86.5096875 1.54875 -86.8396875 1.87875 -87.1796875 2.21875 C-89.2421875 1.78125 -89.2421875 1.78125 -91.1796875 1.21875 C-91.3240625 1.79625 -91.4684375 2.37375 -91.6171875 2.96875 C-92.13802083 5.05208333 -92.65885417 7.13541667 -93.1796875 9.21875 C-95.1596875 9.21875 -97.1396875 9.21875 -99.1796875 9.21875 C-100.02423106 12.59692425 -100.28813669 14.89340243 -99.1796875 18.21875 C-100.1078125 18.363125 -101.0359375 18.5075 -101.9921875 18.65625 C-105.60049739 20.42502936 -105.83445196 20.92280703 -107.1171875 24.53125 C-108.0969696 28.06302269 -108.43572822 30.67899887 -107.1796875 34.21875 C-107.9840625 34.46625 -108.7884375 34.71375 -109.6171875 34.96875 C-112.3025582 35.94102047 -112.3025582 35.94102047 -113.0546875 38.15625 C-113.32047395 40.41812274 -113.32047395 40.41812274 -112.1796875 43.21875 C-113.1696875 43.21875 -114.1596875 43.21875 -115.1796875 43.21875 C-115.2802082 50.86949195 -115.22012998 58.39965095 -114.3984375 66.01171875 C-114.1796875 68.21875 -114.1796875 68.21875 -114.1796875 71.21875 C-112.6946875 70.72375 -112.6946875 70.72375 -111.1796875 70.21875 C-111.0559375 71.023125 -110.9321875 71.8275 -110.8046875 72.65625 C-110.5984375 73.501875 -110.3921875 74.3475 -110.1796875 75.21875 C-109.5196875 75.54875 -108.8596875 75.87875 -108.1796875 76.21875 C-108.5096875 78.85875 -108.8396875 81.49875 -109.1796875 84.21875 C-108.5196875 84.54875 -107.8596875 84.87875 -107.1796875 85.21875 C-107.0559375 86.3634375 -107.0559375 86.3634375 -106.9296875 87.53125 C-105.8593831 91.36650742 -103.436534 92.09182984 -100.1796875 94.21875 C-98.8046875 96.96875 -98.8046875 96.96875 -98.1796875 99.21875 C-95.8696875 99.21875 -93.5596875 99.21875 -91.1796875 99.21875 C-91.1796875 100.53875 -91.1796875 101.85875 -91.1796875 103.21875 C-91.8396875 103.21875 -92.4996875 103.21875 -93.1796875 103.21875 C-93.1796875 103.87875 -93.1796875 104.53875 -93.1796875 105.21875 C-92.5196875 105.21875 -91.8596875 105.21875 -91.1796875 105.21875 C-91.1796875 106.20875 -91.1796875 107.19875 -91.1796875 108.21875 C-89.5709375 108.59 -89.5709375 108.59 -87.9296875 108.96875 C-84.17502466 110.22030428 -82.5794047 111.14711198 -80.1796875 114.21875 C-80.1796875 114.87875 -80.1796875 115.53875 -80.1796875 116.21875 C-79.1278125 116.05375 -78.0759375 115.88875 -76.9921875 115.71875 C-73.97499954 115.32305322 -71.20874778 115.12696029 -68.1796875 115.21875 C-68.025 116.1778125 -68.025 116.1778125 -67.8671875 117.15625 C-67.6403125 117.836875 -67.4134375 118.5175 -67.1796875 119.21875 C-66.1896875 119.54875 -65.1996875 119.87875 -64.1796875 120.21875 C-64.1796875 120.87875 -64.1796875 121.53875 -64.1796875 122.21875 C-61.47147624 122.38763623 -58.76314653 122.55392601 -56.0546875 122.71875 C-55.29414062 122.76644531 -54.53359375 122.81414062 -53.75 122.86328125 C-49.5521842 123.11659772 -45.38767652 123.27252622 -41.1796875 123.21875 C-41.1796875 123.87875 -41.1796875 124.53875 -41.1796875 125.21875 C-57.51302367 128.1257074 -74.57308956 122.0876289 -88.1796875 113.21875 C-102.91760094 101.91555724 -114.55515967 85.59098443 -117.7265625 67.015625 C-120.1566293 46.65334112 -116.77584181 26.98813233 -103.87353516 10.55517578 C-101.15172791 7.26734193 -98.33869927 4.09591685 -95.1796875 1.21875 C-94.5196875 1.21875 -93.8596875 1.21875 -93.1796875 1.21875 C-93.1796875 0.55875 -93.1796875 -0.10125 -93.1796875 -0.78125 C-65.71977757 -24.29144686 -27.43404626 -22.4192206 0 0 Z " fill="#8C8AD7" transform="translate(123.1796875,84.78125)"/>
<path d="M0 0 C24.86074642 -0.2337702 49.72132774 -0.4100261 74.5829525 -0.51812172 C86.1271276 -0.56965037 97.67061916 -0.63988092 109.21435547 -0.75439453 C119.27783758 -0.85417633 129.3408246 -0.91860788 139.40478766 -0.94088495 C144.73217612 -0.95390424 150.05814845 -0.9844219 155.38508224 -1.05730057 C160.4038618 -1.12540416 165.42064827 -1.14607192 170.43984604 -1.13107681 C172.27729646 -1.13381805 174.11481653 -1.1535808 175.95186615 -1.19205475 C190.55385739 -1.48275484 190.55385739 -1.48275484 195.37776566 2.30257034 C197.84785209 4.74935264 199.98684206 7.17045224 202 10 C198.04435836 10 196.89133304 8.59478606 194 6 C193.01 4.515 193.01 4.515 192 3 C188.89998778 2.71854873 186.00271504 2.62904914 182.90234375 2.671875 C181.5116291 2.67414093 181.5116291 2.67414093 180.09281921 2.67645264 C177.0407661 2.68589353 173.9893889 2.71757904 170.9375 2.75 C168.8032273 2.76192947 166.66894957 2.77299028 164.53466797 2.78320312 C152.0037014 2.86030359 139.49631825 3.15646781 126.97460938 3.64135742 C110.96835215 4.18631373 94.95098512 4.08105744 78.9375 4.0625 C78.19737923 4.06164398 77.45725845 4.06078796 76.69470978 4.05990601 C67.46311628 4.04841611 58.23155875 4.02813897 49 4 C49 3.67 49 3.34 49 3 C24.745 2.505 24.745 2.505 0 2 C0 1.34 0 0.68 0 0 Z " fill="#3B45BF" transform="translate(142,107)"/>
<path d="M0 0 C0.33 1.32 0.66 2.64 1 4 C1.928125 4.103125 2.85625 4.20625 3.8125 4.3125 C7.19105883 5.04120877 7.78151133 5.57983054 10 8 C11.9519572 8.9049261 11.9519572 8.9049261 14 9 C14.99 8.34 15.98 7.68 17 7 C17.12711864 12.59322034 17.12711864 12.59322034 16.375 15 C15.79394696 17.14933475 15.79394696 17.14933475 16.99609375 19.671875 C18.14601913 23.484079 18.03652043 26.29723849 17.6875 30.25 C17.58824219 31.47203125 17.48898438 32.6940625 17.38671875 33.953125 C17 37 17 37 16 39 C16.28241883 41.3400417 16.61250787 43.67504723 17 46 C14.03 45.505 14.03 45.505 11 45 C10.505 45.99 10.505 45.99 10 47 C9.34 46.34 8.68 45.68 8 45 C7.59096436 45.48678223 7.18192871 45.97356445 6.76049805 46.47509766 C4.61041773 48.33744707 3.63770489 48.38542101 0.83203125 48.3984375 C0.02056641 48.40230469 -0.79089844 48.40617187 -1.62695312 48.41015625 C-2.89442383 48.39275391 -2.89442383 48.39275391 -4.1875 48.375 C-5.4259668 48.39240234 -5.4259668 48.39240234 -6.68945312 48.41015625 C-12.44137102 48.38296042 -16.72853722 47.29828481 -22 45 C-22 44.01 -22 43.02 -22 42 C-22.309375 41.38125 -22.61875 40.7625 -22.9375 40.125 C-25.39926542 35.20146916 -25.44635921 29.40683242 -26 24 C-26.33 24 -26.66 24 -27 24 C-27 22.02 -27 20.04 -27 18 C-26.34 18 -25.68 18 -25 18 C-24.01 14.535 -24.01 14.535 -23 11 C-22.34 11 -21.68 11 -21 11 C-21.33 9.68 -21.66 8.36 -22 7 C-19.69 7 -17.38 7 -15 7 C-15 5.35 -15 3.7 -15 2 C-12.03 2.495 -12.03 2.495 -9 3 C-8.67 2.01 -8.34 1.02 -8 0 C-5.13822943 -1.43088528 -3.06624227 -0.59991697 0 0 Z M-17.375 10.3125 C-22.02522173 15.0734413 -23.43020469 19.33524709 -23.4375 25.9375 C-23.26574225 33.34650473 -22.0031552 36.91104037 -16.8125 42.25 C-12.0552468 45.21006866 -7.86968579 47.34593473 -2.1484375 46.65625 C3.81988633 45.17623439 8.45286969 43.48332722 12.1796875 38.38671875 C15.6690182 32.57517831 15.88049934 26.61708595 15 20 C13.39258986 14.70500188 10.83061571 10.83536139 6 8 C-2.81347511 4.82879634 -9.51525918 4.1751709 -17.375 10.3125 Z " fill="#9293E3" transform="translate(55,113)"/>
<path d="M0 0 C2.12044163 0.00503436 4.24088444 0.00959378 6.36132812 0.01367188 C11.47008224 0.02450269 16.57877734 0.04165592 21.6875 0.0625 C21.97846054 0.70009247 22.26942108 1.33768494 22.56919861 1.99459839 C23.94940368 4.54679793 25.06866312 4.92709418 27.6875 6.0625 C33.79474782 10.11994958 39.05854801 15.03903152 44.25 20.1875 C44.98541016 20.89003906 45.72082031 21.59257812 46.47851562 22.31640625 C47.16751953 22.99832031 47.85652344 23.68023437 48.56640625 24.3828125 C49.1910376 24.99398926 49.81566895 25.60516602 50.45922852 26.23486328 C51.6875 28.0625 51.6875 28.0625 51.55053711 30.10839844 C50.07610437 33.44683116 47.2975643 35.71575708 44.6875 38.1875 C40.70761003 41.75162684 40.70761003 41.75162684 37.6875 46.0625 C36.04386866 46.78409424 34.37699614 47.45601421 32.6875 48.0625 C32.6875 44.0625 32.6875 44.0625 34.875 41.5 C37.6875 39.0625 37.6875 39.0625 40.4375 37.4375 C42.99824335 36.20459872 42.99824335 36.20459872 43.6875 33.0625 C45.75 31.875 45.75 31.875 47.6875 31.0625 C47.03160262 29.07985205 47.03160262 29.07985205 45.6875 27.0625 C44.4190625 26.629375 44.4190625 26.629375 43.125 26.1875 C42.320625 25.81625 41.51625 25.445 40.6875 25.0625 C39.875 21.9375 39.875 21.9375 39.6875 19.0625 C38.73875 19.248125 37.79 19.43375 36.8125 19.625 C33.6875 20.0625 33.6875 20.0625 31.6875 19.0625 C31.6875 17.4125 31.6875 15.7625 31.6875 14.0625 C30.3675 13.7325 29.0475 13.4025 27.6875 13.0625 C27.6875 12.4025 27.6875 11.7425 27.6875 11.0625 C26.3675 10.4025 25.0475 9.7425 23.6875 9.0625 C23.6875 8.4025 23.6875 7.7425 23.6875 7.0625 C22.0375 7.3925 20.3875 7.7225 18.6875 8.0625 C18.6875 7.0725 18.6875 6.0825 18.6875 5.0625 C20.0075 5.0625 21.3275 5.0625 22.6875 5.0625 C22.6875 4.4025 22.6875 3.7425 22.6875 3.0625 C19.07757621 3.71835189 19.07757621 3.71835189 15.6875 5.0625 C15.6875 4.0725 15.6875 3.0825 15.6875 2.0625 C-4.4425 2.0625 -24.5725 2.0625 -45.3125 2.0625 C-45.3125 1.7325 -45.3125 1.4025 -45.3125 1.0625 C-30.19493921 0.1869351 -15.14062394 -0.06371203 0 0 Z " fill="#2631CD" transform="translate(312.3125,108.9375)"/>
<path d="M0 0 C1.70884005 1.62339805 3.37446717 3.29319053 5 5 C7.17346568 5.86119134 7.17346568 5.86119134 9 6 C8.67 6.99 8.34 7.98 8 9 C10.90600261 10.25664978 12.79604584 11 16 11 C16 11.99 16 12.98 16 14 C17.98 14 19.96 14 22 14 C22 14.66 22 15.32 22 16 C22.66 16 23.32 16 24 16 C24.33 15.01 24.66 14.02 25 13 C25.33 12.34 25.66 11.68 26 11 C29.0625 10.375 29.0625 10.375 32 10 C30.46356148 13.68069887 28.21849055 15.98775204 25.375 18.75 C24.55773437 19.54921875 23.74046875 20.3484375 22.8984375 21.171875 C22.27195312 21.77515625 21.64546875 22.3784375 21 23 C16.71357676 21.33536962 13.91382783 18.20924163 10.75 15 C10.19570312 14.4534375 9.64140625 13.906875 9.0703125 13.34375 C5 9.2533867 5 9.2533867 5 7 C4.401875 6.71125 3.80375 6.4225 3.1875 6.125 C1 5 1 5 -2 3 C-2.26353271 3.59022949 -2.52706543 4.18045898 -2.79858398 4.78857422 C-4.04976701 7.09160527 -5.34804978 8.56361442 -7.22265625 10.3828125 C-8.15368164 11.29740234 -8.15368164 11.29740234 -9.10351562 12.23046875 C-9.74998047 12.85566406 -10.39644531 13.48085937 -11.0625 14.125 C-12.3472393 15.37536074 -13.62989681 16.62786516 -14.91015625 17.8828125 C-15.47871338 18.43340332 -16.04727051 18.98399414 -16.63305664 19.55126953 C-18.10729905 20.97414012 -18.10729905 20.97414012 -19 23 C-27.00081784 24.44135553 -34.97497144 23.90927919 -43.0625 23.5625 C-44.41859576 23.50915126 -45.77471565 23.45641226 -47.13085938 23.40429688 C-50.42085957 23.27550683 -53.71048617 23.14058296 -57 23 C-57 22.67 -57 22.34 -57 22 C-46.11 21.67 -35.22 21.34 -24 21 C-24 19.35 -24 17.7 -24 16 C-22 14.1875 -22 14.1875 -20 13 C-19.34 13.66 -18.68 14.32 -18 15 C-17.401875 14.01 -16.80375 13.02 -16.1875 12 C-15.465625 11.01 -14.74375 10.02 -14 9 C-13.01 9 -12.02 9 -11 9 C-11 8.34 -11 7.68 -11 7 C-10.34 7 -9.68 7 -9 7 C-9.495 5.515 -9.495 5.515 -10 4 C-9.195625 3.87625 -8.39125 3.7525 -7.5625 3.625 C-6.716875 3.41875 -5.87125 3.2125 -5 3 C-4.67 2.34 -4.34 1.68 -4 1 C-2.25 0.0625 -2.25 0.0625 0 0 Z " fill="#494BD3" transform="translate(222,147)"/>
<path d="M0 0 C2.64 0 5.28 0 8 0 C8 0.33 8 0.66 8 1 C6.989375 0.9175 5.97875 0.835 4.9375 0.75 C2.91424309 0.92940797 2.91424309 0.92940797 1 2 C-0.96614821 4.76547014 -2.4712861 7.67210644 -4.0703125 10.6640625 C-12.10997488 24.56258814 -25.27208239 32.6295991 -40 38 C-41.27617188 38.47953125 -41.27617188 38.47953125 -42.578125 38.96875 C-46.48273966 40.36510226 -49.7915377 41.40727055 -54 41 C-53.67 40.01 -53.34 39.02 -53 38 C-51.88625 37.87625 -50.7725 37.7525 -49.625 37.625 C-45.96896323 37.3534187 -45.96896323 37.3534187 -44 35 C-44 34.01 -44 33.02 -44 32 C-42.35 32.66 -40.7 33.32 -39 34 C-38.67 33.01 -38.34 32.02 -38 31 C-36.9275 30.87625 -35.855 30.7525 -34.75 30.625 C-31.62136385 30.10356064 -29.66519576 29.59911746 -27 28 C-27.99 27.67 -28.98 27.34 -30 27 C-30 26.34 -30 25.68 -30 25 C-28.68 25 -27.36 25 -26 25 C-25.67 24.34 -25.34 23.68 -25 23 C-23.02 23.66 -21.04 24.32 -19 25 C-19 24.01 -19 23.02 -19 22 C-18.01 22 -17.02 22 -16 22 C-16.66 21.01 -17.32 20.02 -18 19 C-18.625 16.8125 -18.625 16.8125 -19 15 C-16.69 15.33 -14.38 15.66 -12 16 C-11.95875 15.0925 -11.9175 14.185 -11.875 13.25 C-10.71111387 8.92699437 -8.75881063 8.22460221 -5 6 C-4.34 5.01 -3.68 4.02 -3 3 C-2.34 3 -1.68 3 -1 3 C-0.67 2.01 -0.34 1.02 0 0 Z " fill="#7373CE" transform="translate(139,169)"/>
<path d="M0 0 C3.2116568 2.48222966 6.27456617 5.08048969 9.3046875 7.78125 C6.97254602 8.98753008 4.80826611 9.9467238 2.3046875 10.78125 C2.3046875 10.12125 2.3046875 9.46125 2.3046875 8.78125 C2.9646875 8.78125 3.6246875 8.78125 4.3046875 8.78125 C4.3046875 8.12125 4.3046875 7.46125 4.3046875 6.78125 C3.4178125 6.575 2.5309375 6.36875 1.6171875 6.15625 C-1.6953125 4.78125 -1.6953125 4.78125 -4.0703125 1.78125 C-7.54303721 -2.18757824 -9.55134079 -2.47204443 -14.6953125 -3.21875 C-15.6853125 -2.88875 -16.6753125 -2.55875 -17.6953125 -2.21875 C-18.6853125 -2.87875 -19.6753125 -3.53875 -20.6953125 -4.21875 C-20.6953125 -5.53875 -20.6953125 -6.85875 -20.6953125 -8.21875 C-21.3553125 -8.21875 -22.0153125 -8.21875 -22.6953125 -8.21875 C-22.6953125 -8.87875 -22.6953125 -9.53875 -22.6953125 -10.21875 C-23.7678125 -10.033125 -24.8403125 -9.8475 -25.9453125 -9.65625 C-29.2491992 -9.27079655 -30.65581874 -9.38026896 -33.6953125 -10.21875 C-35.88234635 -9.83967718 -35.88234635 -9.83967718 -37.6953125 -9.21875 C-38.0253125 -9.87875 -38.3553125 -10.53875 -38.6953125 -11.21875 C-39.7884375 -11.21875 -40.8815625 -11.21875 -42.0078125 -11.21875 C-46.40571896 -11.21875 -50.36363347 -11.44867373 -54.6953125 -12.21875 C-54.6953125 -12.54875 -54.6953125 -12.87875 -54.6953125 -13.21875 C-34.55735582 -16.38218381 -16.47274689 -11.99931722 0 0 Z " fill="#7076D7" transform="translate(118.6953125,81.21875)"/>
<path d="M0 0 C1 3 1 3 0.4375 6.3125 C-0.26612076 9.9052985 -0.26612076 9.9052985 0.9921875 12.77734375 C2.16973413 16.54275448 2.03330841 19.33361556 1.6875 23.25 C1.58824219 24.47203125 1.48898438 25.6940625 1.38671875 26.953125 C1 30 1 30 0 32 C0.28241883 34.3400417 0.61250787 36.67504723 1 39 C-0.98 38.67 -2.96 38.34 -5 38 C-5.33 38.66 -5.66 39.32 -6 40 C-6.66 39.34 -7.32 38.68 -8 38 C-8.50466797 38.73669922 -8.50466797 38.73669922 -9.01953125 39.48828125 C-12.01243323 41.77280406 -15.08795135 41.318576 -18.6875 41.1875 C-19.38939453 41.17396484 -20.09128906 41.16042969 -20.81445312 41.14648438 C-22.54329829 41.11120182 -24.27174765 41.05739583 -26 41 C-26 40.01 -26 39.02 -26 38 C-24.93265625 38.28230469 -24.93265625 38.28230469 -23.84375 38.5703125 C-18.93288092 39.31233942 -14.56498323 37.78061846 -10 36 C-6.019527 32.93171873 -3.6406439 29.74923235 -2 25 C-1.30081521 17.45098919 -2.18432494 10.32754577 -4 3 C-2.68 2.01 -1.36 1.02 0 0 Z " fill="#7F7FD9" transform="translate(71,120)"/>
<path d="M0 0 C9.07501568 -0.06946571 18.14994005 -0.12279367 27.22516346 -0.15543652 C31.43902276 -0.17110231 35.65270036 -0.19235703 39.86645508 -0.22631836 C43.93186419 -0.25887957 47.99709836 -0.27684613 52.06262779 -0.28463173 C53.61481163 -0.2901811 55.16698573 -0.30101755 56.71909523 -0.31719017 C58.89082259 -0.33892207 61.06182424 -0.3419688 63.23364258 -0.34057617 C65.08896355 -0.35056892 65.08896355 -0.35056892 66.98176575 -0.36076355 C70 0 70 0 71.92289734 1.52128601 C72.27834122 2.00926163 72.6337851 2.49723724 73 3 C64.9874678 4.03387512 57.07094823 4.10466648 49 4 C49 3.67 49 3.34 49 3 C24.745 2.505 24.745 2.505 0 2 C0 1.34 0 0.68 0 0 Z " fill="#5B5FBC" transform="translate(142,107)"/>
<path d="M0 0 C0.99 0.33 1.98 0.66 3 1 C3.37109375 3.11328125 3.37109375 3.11328125 3 6 C1.0732629 8.26384344 -0.76572297 10.19321213 -2.9375 12.1875 C-6.95844949 15.7099243 -6.95844949 15.7099243 -10 20 C-18.00081784 21.44135553 -25.97497144 20.90927919 -34.0625 20.5625 C-35.41859576 20.50915126 -36.77471565 20.45641226 -38.13085938 20.40429688 C-41.42085957 20.27550683 -44.71048617 20.14058296 -48 20 C-48 19.67 -48 19.34 -48 19 C-37.11 18.67 -26.22 18.34 -15 18 C-15 16.35 -15 14.7 -15 13 C-13 11.1875 -13 11.1875 -11 10 C-10.34 10.66 -9.68 11.32 -9 12 C-8.401875 11.01 -7.80375 10.02 -7.1875 9 C-6.465625 8.01 -5.74375 7.02 -5 6 C-4.01 6 -3.02 6 -2 6 C-2 5.34 -2 4.68 -2 4 C-1.34 4 -0.68 4 0 4 C-0.495 2.515 -0.495 2.515 -1 1 C-0.67 0.67 -0.34 0.34 0 0 Z " fill="#5357D1" transform="translate(213,150)"/>
<path d="M0 0 C0 0.99 0 1.98 0 3 C-1.03060547 2.94779297 -1.03060547 2.94779297 -2.08203125 2.89453125 C-2.98308594 2.86746094 -3.88414063 2.84039062 -4.8125 2.8125 C-5.70582031 2.77769531 -6.59914062 2.74289063 -7.51953125 2.70703125 C-10.48110221 3.0568231 -11.04749604 3.86846989 -13 6 C-13.99 6 -14.98 6 -16 6 C-18.16666667 6.83333333 -18.16666667 6.83333333 -19 9 C-21.475 8.505 -21.475 8.505 -24 8 C-24 8.66 -24 9.32 -24 10 C-24.61875 10.268125 -25.2375 10.53625 -25.875 10.8125 C-28.2995233 11.95556848 -28.2995233 11.95556848 -30 15 C-30 15.99 -30 16.98 -30 18 C-30.66 17.67 -31.32 17.34 -32 17 C-32.33 17.33 -32.66 17.66 -33 18 C-34.66617115 18.04063832 -36.33388095 18.042721 -38 18 C-38.33 17.01 -38.66 16.02 -39 15 C-29.81176102 7.92002133 -20.98040071 3.60013138 -10 0 C-6.30581799 -1.231394 -3.7943739 -0.64432764 0 0 Z " fill="#8788E3" transform="translate(69,69)"/>
<path d="M0 0 C2.12044163 0.00503436 4.24088444 0.00959378 6.36132812 0.01367188 C11.47008224 0.02450269 16.57877734 0.04165592 21.6875 0.0625 C22.1825 1.0525 22.1825 1.0525 22.6875 2.0625 C21.90375 2.371875 21.12 2.68125 20.3125 3 C17.76419872 3.99125038 17.76419872 3.99125038 15.6875 5.0625 C15.6875 4.0725 15.6875 3.0825 15.6875 2.0625 C-4.4425 2.0625 -24.5725 2.0625 -45.3125 2.0625 C-45.3125 1.7325 -45.3125 1.4025 -45.3125 1.0625 C-30.19493921 0.1869351 -15.14062394 -0.06371203 0 0 Z " fill="#2D3ADD" transform="translate(312.3125,108.9375)"/>
<path d="M0 0 C0.33 0 0.66 0 1 0 C1 6.27 1 12.54 1 19 C4.25129459 18.91301887 7.4998372 18.80613542 10.75 18.6875 C12.13058594 18.65366211 12.13058594 18.65366211 13.5390625 18.61914062 C14.42851562 18.58369141 15.31796875 18.54824219 16.234375 18.51171875 C17.45979004 18.47244263 17.45979004 18.47244263 18.70996094 18.43237305 C21.46407075 17.91238067 22.84058182 16.73497883 25 15 C25.66 15 26.32 15 27 15 C27 14.01 27 13.02 27 12 C27.66 12 28.32 12 29 12 C29 11.34 29 10.68 29 10 C30.65 9.67 32.3 9.34 34 9 C34 8.34 34 7.68 34 7 C35.98 6.34 37.96 5.68 40 5 C38.61985324 6.65617611 37.2314123 8.30593249 35.80908203 9.92602539 C34.61976944 11.28948159 33.46281157 12.6819744 32.34326172 14.10327148 C28.57815816 18.48252994 25.8781692 20.50575127 20.0390625 21.03515625 C17.90157556 21.08379525 15.76283457 21.09215633 13.625 21.0625 C12.53316406 21.08248047 11.44132812 21.10246094 10.31640625 21.12304688 C2.43173048 21.21586524 2.43173048 21.21586524 0 20 C0 13.4 0 6.8 0 0 Z " fill="#3237B3" transform="translate(309,150)"/>
<path d="M0 0 C3.98882376 1.53416298 7.64783382 4.4247074 10 8 C9.35923824 12.63946949 6.25331084 15.04409965 3 18.125 C-0.97988997 21.68912684 -0.97988997 21.68912684 -4 26 C-5.64363134 26.72159424 -7.31050386 27.39351421 -9 28 C-9 24 -9 24 -6.8125 21.4375 C-4 19 -4 19 -1.25 17.375 C1.31074335 16.14209872 1.31074335 16.14209872 2 13 C4.0625 11.8125 4.0625 11.8125 6 11 C5.01469421 8.80201017 4.18695263 7.17947452 2.4375 5.5 C0.73683989 3.72539815 0.41205818 2.38993744 0 0 Z " fill="#2836CA" transform="translate(354,129)"/>
<path d="M0 0 C0.99 0.33 1.98 0.66 3 1 C2.814375 1.721875 2.62875 2.44375 2.4375 3.1875 C1.98004693 6.12826973 2.26483643 8.14103058 3 11 C2.195625 11.2475 1.39125 11.495 0.5625 11.75 C-2.1228707 12.72227047 -2.1228707 12.72227047 -2.875 14.9375 C-3.14078645 17.19937274 -3.14078645 17.19937274 -2 20 C-2.99 20 -3.98 20 -5 20 C-5.02722517 22.20826378 -5.04649729 24.41662638 -5.0625 26.625 C-5.07410156 27.85476562 -5.08570313 29.08453125 -5.09765625 30.3515625 C-5.09990348 33.95798605 -5.09990348 33.95798605 -4.37109375 37.2734375 C-4 40 -4 40 -6 43 C-8.42436866 32.09034105 -6.63675084 22.27072603 -3.875 11.6875 C-2.84608181 7.98299341 -2.84608181 7.98299341 -3 4 C-2.01 3.67 -1.02 3.34 0 3 C0 2.01 0 1.02 0 0 Z " fill="#9493ED" transform="translate(13,108)"/>
<path d="M0 0 C-0.33 0.66 -0.66 1.32 -1 2 C-9.34545455 1.14545455 -9.34545455 1.14545455 -12.8125 0.375 C-15.20214493 -0.03465342 -16.71846836 0.23948945 -19 1 C-19.33 0.34 -19.66 -0.32 -20 -1 C-21.093125 -1 -22.18625 -1 -23.3125 -1 C-27.71040646 -1 -31.66832097 -1.22992373 -36 -2 C-36 -2.33 -36 -2.66 -36 -3 C-22.97975801 -5.04532537 -12.32566524 -4.25415873 0 0 Z " fill="#8080DC" transform="translate(100,71)"/>
<path d="M0 0 C2.64 0 5.28 0 8 0 C8 0.33 8 0.66 8 1 C6.989375 0.9175 5.97875 0.835 4.9375 0.75 C2.92079263 0.91644802 2.92079263 0.91644802 1 2 C-1.03985867 4.81993649 -2.60091973 7.75404153 -4.22265625 10.83203125 C-6.61206727 15.09095946 -9.61881906 18.50577046 -13 22 C-13 19 -13 19 -12 16 C-11.9071875 14.5459375 -11.9071875 14.5459375 -11.8125 13.0625 C-10.70341796 8.88211386 -8.62841633 8.14743007 -5 6 C-4.34 5.01 -3.68 4.02 -3 3 C-2.34 3 -1.68 3 -1 3 C-0.67 2.01 -0.34 1.02 0 0 Z " fill="#7172D0" transform="translate(139,169)"/>
<path d="M0 0 C0.33 0 0.66 0 1 0 C1 11.22 1 22.44 1 34 C3.76375 33.87625 6.5275 33.7525 9.375 33.625 C10.24431152 33.59100098 11.11362305 33.55700195 12.00927734 33.52197266 C16.47543818 33.45208915 16.47543818 33.45208915 20 31 C20 32.65 20 34.3 20 36 C16.85418577 36.02888514 13.70840531 36.04675923 10.5625 36.0625 C9.66466797 36.07087891 8.76683594 36.07925781 7.84179688 36.08789062 C6.56079102 36.09272461 6.56079102 36.09272461 5.25390625 36.09765625 C4.46314697 36.10289307 3.6723877 36.10812988 2.85766602 36.11352539 C1 36 1 36 0 35 C-0.08851529 32.40640678 -0.11525945 29.83960309 -0.09765625 27.24609375 C-0.09553383 26.08292381 -0.09553383 26.08292381 -0.09336853 24.89625549 C-0.08775345 22.40996506 -0.07519846 19.9237634 -0.0625 17.4375 C-0.05748694 15.75586067 -0.0529237 14.07421994 -0.04882812 12.39257812 C-0.03777913 8.26168434 -0.02050445 4.13085724 0 0 Z " fill="#ECECED" transform="translate(260,63)"/>
<path d="M0 0 C0 3 0 3 -2.25 5.5625 C-6.14545003 9.01528526 -7.75321706 10 -13 10 C-13.66 8.35 -14.32 6.7 -15 5 C-13.02 4.67 -11.04 4.34 -9 4 C-9 4.66 -9 5.32 -9 6 C-8.34 6 -7.68 6 -7 6 C-6.67 5.01 -6.34 4.02 -6 3 C-5.67 2.34 -5.34 1.68 -5 1 C-2.4375 0.375 -2.4375 0.375 0 0 Z " fill="#4649C8" transform="translate(253,157)"/>
<path d="M0 0 C2 0 2 0 3.3125 1.25 C4.1478125 2.11625 4.1478125 2.11625 5 3 C6.299375 3.9590625 6.299375 3.9590625 7.625 4.9375 C10.14076543 7.12224366 10.47570388 7.85422329 11 11 C11.66 11.66 12.32 12.32 13 13 C12.67 13.99 12.34 14.98 12 16 C2.04901961 6.33333333 2.04901961 6.33333333 0 0 Z " fill="#8884D7" transform="translate(14,173)"/>
<path d="M0 0 C0.99 0 1.98 0 3 0 C3 0.66 3 1.32 3 2 C3.639375 2.268125 4.27875 2.53625 4.9375 2.8125 C7 4 7 4 8 7 C8.99 7.33 9.98 7.66 11 8 C11.33 8.99 11.66 9.98 12 11 C11.01 11.33 10.02 11.66 9 12 C8.34 11.67 7.68 11.34 7 11 C7 10.34 7 9.68 7 9 C5.68 8.34 4.36 7.68 3 7 C3 6.34 3 5.68 3 5 C1.35 5.33 -0.3 5.66 -2 6 C-2 5.01 -2 4.02 -2 3 C-0.68 3 0.64 3 2 3 C2 2.34 2 1.68 2 1 C1.34 0.67 0.68 0.34 0 0 Z " fill="#2332E5" transform="translate(333,111)"/>
<path d="M0 0 C-20.0359817 8.57716306 -20.0359817 8.57716306 -26 8 C-25.67 7.01 -25.34 6.02 -25 5 C-19.01270113 3.88482498 -13.03748977 2.80499864 -7 2 C-7 1.34 -7 0.68 -7 0 C-2.25 -1.125 -2.25 -1.125 0 0 Z " fill="#8484D4" transform="translate(111,202)"/>
<path d="M0 0 C0.33 0 0.66 0 1 0 C1 6.27 1 12.54 1 19 C-2.97966457 20.98983228 -3.67675132 21.22400716 -7.75 20.625 C-8.54921875 20.51414063 -9.3484375 20.40328125 -10.171875 20.2890625 C-11.07679688 20.14597656 -11.07679688 20.14597656 -12 20 C-12 19.67 -12 19.34 -12 19 C-8.37 19 -4.74 19 -1 19 C-1.09539062 18.13117188 -1.19078125 17.26234375 -1.2890625 16.3671875 C-1.39992188 15.21476563 -1.51078125 14.06234375 -1.625 12.875 C-1.74101562 11.73804688 -1.85703125 10.60109375 -1.9765625 9.4296875 C-2.00112837 5.83488201 -1.32167811 3.319329 0 0 Z " fill="#3C41B3" transform="translate(288,150)"/>
<path d="M0 0 C2.23487544 4.46975089 2.23487544 4.46975089 2.0625 8 C1.97648207 10.89235287 2.24544908 13.19738229 3 16 C2.67 16.66 2.34 17.32 2 18 C2.78375 17.814375 3.5675 17.62875 4.375 17.4375 C9.03933441 16.87456309 13.35977729 17.40392396 18 18 C18 18.33 18 18.66 18 19 C12.06 19 6.12 19 0 19 C0 12.73 0 6.46 0 0 Z " fill="#3F44DC" transform="translate(310,150)"/>
<path d="M0 0 C0.33 1.32 0.66 2.64 1 4 C-0.79090253 4.19466332 -2.58276505 4.38051213 -4.375 4.5625 C-5.87160156 4.71912109 -5.87160156 4.71912109 -7.3984375 4.87890625 C-10 5 -10 5 -12 4 C-11.67 3.34 -11.34 2.68 -11 2 C-10.34 2.33 -9.68 2.66 -9 3 C-8.67 2.01 -8.34 1.02 -8 0 C-5.13822943 -1.43088528 -3.06624227 -0.59991697 0 0 Z " fill="#8686F1" transform="translate(55,113)"/>
<path d="M0 0 C0.33 0 0.66 0 1 0 C1.22181406 2.43695715 1.42791119 4.873526 1.625 7.3125 C1.68945312 8.00279297 1.75390625 8.69308594 1.8203125 9.40429688 C2.11802847 13.2559972 2.20763723 14.68854416 0 18 C-2.5 19.75 -2.5 19.75 -5 21 C-5.66 20.67 -6.32 20.34 -7 20 C-6.21625 19.113125 -5.4325 18.22625 -4.625 17.3125 C-0.87834179 12.17543888 -0.6213712 6.167341 0 0 Z " fill="#807FD1" transform="translate(70,135)"/>
<path d="M0 0 C5.33090641 3.44941003 8.18357292 8.44457339 11 14 C11 14.66 11 15.32 11 16 C11.66 16 12.32 16 13 16 C13 16.66 13 17.32 13 18 C12.01 18 11.02 18 10 18 C8.15473038 15.37403939 7.01624151 13.04872454 6 10 C5.34 10 4.68 10 4 10 C1.125 3.375 1.125 3.375 0 0 Z " fill="#7072CB" transform="translate(128,91)"/>
<path d="M0 0 C0.66 0.33 1.32 0.66 2 1 C2.625 4.0625 2.625 4.0625 3 7 C4.32 7.33 5.64 7.66 7 8 C6.34 8 5.68 8 5 8 C4.67 8.99 4.34 9.98 4 11 C0.78970286 9.89300099 -0.00968977 8.98396175 -1.8125 6 C-2.4003125 4.515 -2.4003125 4.515 -3 3 C-2.67 2.34 -2.34 1.68 -2 1 C-1.34 1.33 -0.68 1.66 0 2 C0 1.34 0 0.68 0 0 Z " fill="#4245ED" transform="translate(271,155)"/>
<path d="M0 0 C3.07281754 0.83222142 4.02197631 1.43887157 6 3.8125 C6.66 4.1425 7.32 4.4725 8 4.8125 C9.1875 7.1875 9.1875 7.1875 10 9.8125 C9.67 10.8025 9.34 11.7925 9 12.8125 C8.38125 11.74 7.7625 10.6675 7.125 9.5625 C3.82423706 4.8457576 -0.67007698 3.47874778 -6 1.8125 C-3 -0.1875 -3 -0.1875 0 0 Z " fill="#8887D4" transform="translate(59,117.1875)"/>
<path d="M0 0 C4.60853797 0.72008406 8.67237409 2.31295939 13 4 C13 4.66 13 5.32 13 6 C11.8553125 5.9690625 11.8553125 5.9690625 10.6875 5.9375 C7.89814214 5.87057159 7.89814214 5.87057159 5 7 C4.01 6.34 3.02 5.68 2 5 C2 3.68 2 2.36 2 1 C1.34 0.67 0.68 0.34 0 0 Z " fill="#7277E7" transform="translate(96,72)"/>
<path d="M0 0 C-0.33 0.99 -0.66 1.98 -1 3 C-2.65 3 -4.3 3 -6 3 C-6 3.66 -6 4.32 -6 5 C-9.3 5.66 -12.6 6.32 -16 7 C-15.67 5.35 -15.34 3.7 -15 2 C-12.525 2.99 -12.525 2.99 -10 4 C-9.67 3.01 -9.34 2.02 -9 1 C-2.25 0 -2.25 0 0 0 Z " fill="#7B7BEA" transform="translate(110,199)"/>
<path d="M0 0 C2 3 2 3 2 7 C-0.97 6.505 -0.97 6.505 -4 6 C-4.33 6.66 -4.66 7.32 -5 8 C-5.66 6.68 -6.32 5.36 -7 4 C-4.69 2.68 -2.38 1.36 0 0 Z " fill="#8484F2" transform="translate(70,152)"/>
<path d="M0 0 C-0.53851968 5.27749285 -1.77343836 9.25645564 -4 14 C-4.33 14 -4.66 14 -5 14 C-6.56102844 7.03541157 -6.56102844 7.03541157 -4.98828125 4.1328125 C-1.53767943 0 -1.53767943 0 0 0 Z " fill="#686868" transform="translate(250,176)"/>
<path d="M0 0 C5.75 1.75 5.75 1.75 8 4 C8 4.99 8 5.98 8 7 C10.31 6.34 12.62 5.68 15 5 C13.68 6.65 12.36 8.3 11 10 C7.81326038 8.59698853 5.67778594 6.92234929 3.25 4.4375 C2.63640625 3.81746094 2.0228125 3.19742188 1.390625 2.55859375 C0 1 0 1 0 0 Z " fill="#4B4ABD" transform="translate(232,160)"/>
<path d="M0 0 C1.02577148 0.00676758 1.02577148 0.00676758 2.07226562 0.01367188 C3.73571604 0.0253044 5.3991205 0.04323306 7.0625 0.0625 C4.16072819 1.68854981 1.80594034 2.38543439 -1.5 2.6875 C-2.64662109 2.79964844 -2.64662109 2.79964844 -3.81640625 2.9140625 C-7.68151361 3.18454883 -11.13437207 2.73861163 -14.9375 2.0625 C-14.9375 1.7325 -14.9375 1.4025 -14.9375 1.0625 C-9.89895894 0.23038724 -5.1249338 -0.0453534 0 0 Z " fill="#7E7EC9" transform="translate(78.9375,66.9375)"/>
<path d="M0 0 C5 2 5 2 10 4 C10 4.66 10 5.32 10 6 C11.0725 6.268125 12.145 6.53625 13.25 6.8125 C16.56508928 7.86227827 18.43877646 8.74612328 21 11 C16.11145869 10.45189082 12.55531881 8.9760612 8.25 6.625 C7.12078125 6.01914063 5.9915625 5.41328125 4.828125 4.7890625 C2 3 2 3 0 0 Z " fill="#8B88CE" transform="translate(33,195)"/>
<path d="M0 0 C3.3 0 6.6 0 10 0 C10.33 0.99 10.66 1.98 11 3 C10.67 3.66 10.34 4.32 10 5 C6.44219804 4.39009109 3.3171411 3.4216319 0 2 C0 1.34 0 0.68 0 0 Z " fill="#8886EA" transform="translate(45,200)"/>
<path d="M0 0 C0.66 0.99 1.32 1.98 2 3 C5.06556598 3.73343428 5.06556598 3.73343428 8 4 C8 4.33 8 4.66 8 5 C5.89594609 5.16808419 3.79175242 5.33441948 1.6875 5.5 C0.51574219 5.5928125 -0.65601563 5.685625 -1.86328125 5.78125 C-3.905194 5.92364989 -5.9531279 6 -8 6 C-7.0479279 4.99403703 -6.08812654 3.99538437 -5.125 3 C-4.59132813 2.443125 -4.05765625 1.88625 -3.5078125 1.3125 C-2 0 -2 0 0 0 Z " fill="#383FEB" transform="translate(294,144)"/>
<path d="M0 0 C1.99609375 0.0859375 1.99609375 0.0859375 4.4375 0.375 C5.64212891 0.51035156 5.64212891 0.51035156 6.87109375 0.6484375 C9 1 9 1 11 2 C7.16674383 4.70582788 4.67461851 5.32613618 0 5 C-0.5625 3.0625 -0.5625 3.0625 -1 1 C-0.67 0.67 -0.34 0.34 0 0 Z " fill="#EEEEEC" transform="translate(178,273)"/>
<path d="M0 0 C0.33 1.32 0.66 2.64 1 4 C-0.57826815 5.46381359 -2.16282229 6.92085163 -3.75 8.375 C-4.63171875 9.18710938 -5.5134375 9.99921875 -6.421875 10.8359375 C-8.59802521 12.6625848 -10.40820119 13.89787994 -13 15 C-12.60167969 14.54109375 -12.20335937 14.0821875 -11.79296875 13.609375 C-8.39984291 9.68325173 -8.39984291 9.68325173 -5.25 5.5625 C-4.8375 5.046875 -4.425 4.53125 -4 4 C-3.34 4 -2.68 4 -2 4 C-1.34 2.68 -0.68 1.36 0 0 Z " fill="#DBDBDB" transform="translate(229,215)"/>
<path d="M0 0 C-0.33 1.32 -0.66 2.64 -1 4 C-2.32 3.01 -3.64 2.02 -5 1 C-5.28875 1.639375 -5.5775 2.27875 -5.875 2.9375 C-7 5 -7 5 -9 6 C-8.125 1.25 -8.125 1.25 -7 -1 C-3.58234953 -2.36706019 -3.25800204 -2.17200136 0 0 Z " fill="#4D52CA" transform="translate(225,149)"/>
<path d="M0 0 C0.66 0.66 1.32 1.32 2 2 C1.67 2.99 1.34 3.98 1 5 C0.65772583 6.33106622 0.32248257 7.66400079 0 9 C-1.98 9 -3.96 9 -6 9 C-4.47291037 5.56404834 -2.40072955 2.88087546 0 0 Z " fill="#8F90F0" transform="translate(30,85)"/>
<path d="M0 0 C1.58624235 0.42683239 3.1689098 0.86696158 4.75 1.3125 C6.07257813 1.67794922 6.07257813 1.67794922 7.421875 2.05078125 C10.05772505 3.02125331 11.85407326 4.21005644 14 6 C13.01 6.495 13.01 6.495 12 7 C9.65794699 6.02059602 7.32481174 5.01965427 5 4 C4.01 4 3.02 4 2 4 C1.34 2.68 0.68 1.36 0 0 Z " fill="#F3F3F3" transform="translate(216,24)"/>
<path d="M0 0 C1.18224668 3.54674003 0.89329634 5.97522995 0.5625 9.6875 C0.40974609 11.45673828 0.40974609 11.45673828 0.25390625 13.26171875 C0.12822266 14.61716797 0.12822266 14.61716797 0 16 C-0.99 15.34 -1.98 14.68 -3 14 C-2.48594831 9.03083364 -1.76615118 4.70973649 0 0 Z " fill="#8788D9" transform="translate(32,129)"/>
<path d="M0 0 C3 1 3 1 4.125 2.75 C5.05946943 5.15292138 5.57674394 7.46046361 6 10 C5.01 9.67 4.02 9.34 3 9 C2.66666667 7.66666667 2.33333333 6.33333333 2 5 C1.01 4.67 0.02 4.34 -1 4 C-1.33 3.01 -1.66 2.02 -2 1 C-1.34 0.67 -0.68 0.34 0 0 Z " fill="#676CE4" transform="translate(126,90)"/>
<path d="M0 0 C3.37462715 0.54723683 5.08235 1.0549 8 3 C6.625 5 6.625 5 5 7 C4.34 7 3.68 7 3 7 C1.25372522 4.38058783 0.61277612 2.96175123 0 0 Z " fill="#7879E7" transform="translate(120,184)"/>
<path d="M0 0 C0.33 1.65 0.66 3.3 1 5 C-0.65 5.33 -2.3 5.66 -4 6 C-4.66 4.35 -5.32 2.7 -6 1 C-3 0 -3 0 0 0 Z " fill="#4B4DE5" transform="translate(244,161)"/>
<path d="M0 0 C3.3125 0.625 3.3125 0.625 7 2 C9 5 9 5 10 8 C9.67 8.66 9.34 9.32 9 10 C7.49702124 8.52386015 5.99768715 7.04400843 4.5 5.5625 C3.6646875 4.73878906 2.829375 3.91507813 1.96875 3.06640625 C0 1 0 1 0 0 Z " fill="#3F40B1" transform="translate(261,154)"/>
<path d="M0 0 C4.85963179 0.60745397 8.7405518 2.72758967 13 5 C13 5.99 13 6.98 13 8 C11.68 7.67 10.36 7.34 9 7 C9 6.01 9 5.02 9 4 C7.88625 3.896875 6.7725 3.79375 5.625 3.6875 C3.830625 3.3471875 3.830625 3.3471875 2 3 C1.34 2.01 0.68 1.02 0 0 Z " fill="#787BCD" transform="translate(100,72)"/>
<path d="M0 0 C7.59 0 15.18 0 23 0 C23 0.33 23 0.66 23 1 C19.72922836 1.16789217 16.45837336 1.33410238 13.1875 1.5 C12.25873047 1.54769531 11.32996094 1.59539062 10.37304688 1.64453125 C9.48037109 1.68964844 8.58769531 1.73476562 7.66796875 1.78125 C6.84578857 1.82314453 6.0236084 1.86503906 5.17651367 1.90820312 C3.45227071 1.98092498 1.72577585 2 0 2 C0 1.34 0 0.68 0 0 Z " fill="#696EE6" transform="translate(143,109)"/>
<path d="M0 0 C3.3 0.99 6.6 1.98 10 3 C10 3.66 10 4.32 10 5 C6.59068103 6.13643966 5.99664544 5.86747764 2.8125 4.5625 C2.09707031 4.27503906 1.38164063 3.98757812 0.64453125 3.69140625 C0.10183594 3.46324219 -0.44085938 3.23507813 -1 3 C-0.67 2.01 -0.34 1.02 0 0 Z " fill="#8786EF" transform="translate(34,155)"/>
<path d="M0 0 C1.2065625 0.0309375 1.2065625 0.0309375 2.4375 0.0625 C2.1075 1.0525 1.7775 2.0425 1.4375 3.0625 C-3.5125 3.0625 -8.4625 3.0625 -13.5625 3.0625 C-13.5625 2.7325 -13.5625 2.4025 -13.5625 2.0625 C-12.85222656 2.00191406 -12.14195312 1.94132812 -11.41015625 1.87890625 C-10.03150391 1.75322266 -10.03150391 1.75322266 -8.625 1.625 C-7.70847656 1.54378906 -6.79195312 1.46257812 -5.84765625 1.37890625 C-3.0392385 0.99004841 -2.92897185 0.07143834 0 0 Z " fill="#535AC1" transform="translate(237.5625,106.9375)"/>
<path d="M0 0 C0.33 0 0.66 0 1 0 C1 2.97 1 5.94 1 9 C1.99 9.33 2.98 9.66 4 10 C2.0625 10.5625 2.0625 10.5625 0 11 C-1 10 -1 10 -1.1328125 7.96875 C-1.13023437 7.1540625 -1.12765625 6.339375 -1.125 5.5 C-1.12757813 4.6853125 -1.13015625 3.870625 -1.1328125 3.03125 C-1 1 -1 1 0 0 Z " fill="#5E5E5D" transform="translate(181,241)"/>
<path d="M0 0 C3.375 -0.125 3.375 -0.125 7 0 C7.66 0.66 8.32 1.32 9 2 C8 3 8 3 5.93359375 3.09765625 C5.10988281 3.08605469 4.28617188 3.07445313 3.4375 3.0625 C2.61121094 3.05347656 1.78492188 3.04445313 0.93359375 3.03515625 C0.29550781 3.02355469 -0.34257812 3.01195313 -1 3 C-0.67 2.01 -0.34 1.02 0 0 Z " fill="#363DD3" transform="translate(240,107)"/>
<path d="M0 0 C2.31 0.33 4.62 0.66 7 1 C5.35 2.65 3.7 4.3 2 6 C2 5.34 2 4.68 2 4 C1.01 4 0.02 4 -1 4 C-0.67 2.68 -0.34 1.36 0 0 Z " fill="#4E52CF" transform="translate(201,162)"/>
<path d="M0 0 C0.99 0 1.98 0 3 0 C3 0.66 3 1.32 3 2 C3.66 2.33 4.32 2.66 5 3 C0.25 6 0.25 6 -2 6 C-1.34 4.02 -0.68 2.04 0 0 Z " fill="#595EDE" transform="translate(206,158)"/>
<path d="M0 0 C2.475 0.495 2.475 0.495 5 1 C5 4 5 4 3 6.1875 C2.34 6.785625 1.68 7.38375 1 8 C0.67 5.36 0.34 2.72 0 0 Z " fill="#8787DE" transform="translate(33,120)"/>
<path d="M0 0 C1.32 0.33 2.64 0.66 4 1 C3.34 2.65 2.68 4.3 2 6 C0.02 5.34 -1.96 4.68 -4 4 C-4 3.34 -4 2.68 -4 2 C-2.68 2 -1.36 2 0 2 C0 1.34 0 0.68 0 0 Z " fill="#7477E8" transform="translate(113,192)"/>
<path d="M0 0 C1.32 0.33 2.64 0.66 4 1 C3.67 2.32 3.34 3.64 3 5 C2.01 4.67 1.02 4.34 0 4 C-0.33 4.99 -0.66 5.98 -1 7 C-1.625 5.1875 -1.625 5.1875 -2 3 C-1.34 2.01 -0.68 1.02 0 0 Z " fill="#5057EF" transform="translate(218,144)"/>
<path d="M0 0 C0.33 0.66 0.66 1.32 1 2 C1.66 2.33 2.32 2.66 3 3 C2.67 3.66 2.34 4.32 2 5 C-2.455 4.01 -2.455 4.01 -7 3 C-7 2.67 -7 2.34 -7 2 C-4.69 1.34 -2.38 0.68 0 0 Z " fill="#ECECEC" transform="translate(100,57)"/>
<path d="M0 0 C1.98 0 3.96 0 6 0 C6 1.32 6 2.64 6 4 C3.69 3.67 1.38 3.34 -1 3 C-0.67 2.01 -0.34 1.02 0 0 Z " fill="#8B8BF3" transform="translate(26,184)"/>
<path d="M0 0 C1.65 1.65 3.3 3.3 5 5 C3.125 6.0625 3.125 6.0625 1 7 C0.34 6.67 -0.32 6.34 -1 6 C-1.042721 4.33388095 -1.04063832 2.66617115 -1 1 C-0.67 0.67 -0.34 0.34 0 0 Z " fill="#2231E8" transform="translate(345,122)"/>
<path d="M0 0 C0.33 0 0.66 0 1 0 C1.04254356 1.99954746 1.04080783 4.00041636 1 6 C0 7 0 7 -3.0625 7.0625 C-4.5165625 7.0315625 -4.5165625 7.0315625 -6 7 C-4.71034824 5.62437146 -3.37310707 4.29233607 -2 3 C-1.34 3 -0.68 3 0 3 C0 2.01 0 1.02 0 0 Z " fill="#3D41DA" transform="translate(336,162)"/>
<path d="M0 0 C3.51005335 1.6380249 6.45543849 3.03134491 9 6 C8.67 6.99 8.34 7.98 8 9 C6.62437146 7.71034824 5.29233607 6.37310707 4 5 C4 4.34 4 3.68 4 3 C2.68 2.67 1.36 2.34 0 2 C0 1.34 0 0.68 0 0 Z " fill="#2E37CA" transform="translate(340,116)"/>
<path d="M0 0 C3 0.25 3 0.25 5 2.25 C3.02 2.25 1.04 2.25 -1 2.25 C-1.33 3.24 -1.66 4.23 -2 5.25 C-2.99 4.26 -3.98 3.27 -5 2.25 C-3 0.25 -3 0.25 0 0 Z " fill="#EEEEEE" transform="translate(246,33.75)"/>
<path d="M0 0 C-0.625 2.4375 -0.625 2.4375 -2 5 C-5.125 5.8125 -5.125 5.8125 -8 6 C-3.375 0 -3.375 0 0 0 Z " fill="#F0F0F1" transform="translate(183,1)"/>
<path d="M0 0 C-0.75 6.75 -0.75 6.75 -3 9 C-3.6875 6.1875 -3.6875 6.1875 -4 3 C-1.8 0 -1.8 0 0 0 Z " fill="#959595" transform="translate(250,176)"/>
<path d="M0 0 C1.11375 0.4640625 1.11375 0.4640625 2.25 0.9375 C4.50692176 1.8094925 6.6450153 2.47667007 9 3 C8.34 3 7.68 3 7 3 C6.67 3.99 6.34 4.98 6 6 C3.37812506 4.95125002 2.20628639 4.35068687 0.75 1.875 C0.5025 1.25625 0.255 0.6375 0 0 Z " fill="#4849DD" transform="translate(269,160)"/>
<path d="M0 0 C2 2 2 2 2 5 C0.02 5.99 0.02 5.99 -2 7 C-2 3 -2 3 0 0 Z " fill="#293AE7" transform="translate(347,150)"/>
<path d="M0 0 C0.66 0.33 1.32 0.66 2 1 C0.68 2.32 -0.64 3.64 -2 5 C-5.875 3.25 -5.875 3.25 -7 1 C-5.5459375 1.0309375 -5.5459375 1.0309375 -4.0625 1.0625 C-1.12534105 1.35618499 -1.12534105 1.35618499 0 0 Z " fill="#4946A7" transform="translate(245,165)"/>
<path d="M0 0 C0 0.33 0 0.66 0 1 C-1.98 1 -3.96 1 -6 1 C-6 1.66 -6 2.32 -6 3 C-8.31 2.67 -10.62 2.34 -13 2 C-13 1.67 -13 1.34 -13 1 C-8.59085217 -0.10228696 -4.51617599 -0.07654536 0 0 Z " fill="#6060DB" transform="translate(160,168)"/>
<path d="M0 0 C-2.97 2.475 -2.97 2.475 -6 5 C-6 3.35 -6 1.7 -6 0 C-3 -1 -3 -1 0 0 Z " fill="#3238BD" transform="translate(343,162)"/>
<path d="M0 0 C-1.28965176 1.37562854 -2.62689293 2.70766393 -4 4 C-4.66 4 -5.32 4 -6 4 C-6.33 3.01 -6.66 2.02 -7 1 C-3.375 -1.125 -3.375 -1.125 0 0 Z " fill="#4143E9" transform="translate(255,153)"/>
<path d="M0 0 C3.36720387 1.39332574 4.9859524 2.9789286 7 6 C4.0625 5.25 4.0625 5.25 1 4 C0.125 1.875 0.125 1.875 0 0 Z " fill="#2A37B7" transform="translate(354,129)"/>
<path d="M0 0 C1.04449911 3.13349732 0.93423645 3.98968256 0 7 C-1.32 6.34 -2.64 5.68 -4 5 C-3 2 -3 2 0 0 Z " fill="#8284F0" transform="translate(71,120)"/>
<path d="M0 0 C2.64 1.65 5.28 3.3 8 5 C4 6 4 6 1.75 4.75 C1.1725 4.1725 0.595 3.595 0 3 C0 2.01 0 1.02 0 0 Z " fill="#8D8DD2" transform="translate(35,152)"/>
<path d="M0 0 C0.33 0.99 0.66 1.98 1 3 C1.99 2.67 2.98 2.34 4 2 C4 3.65 4 5.3 4 7 C1.525 6.01 1.525 6.01 -1 5 C-0.67 3.35 -0.34 1.7 0 0 Z " fill="#9A9BEE" transform="translate(8,153)"/>
<path d="M0 0 C0.66 0.33 1.32 0.66 2 1 C1.34 2.32 0.68 3.64 0 5 C-2 5 -2 5 -5 4 C-3.35 2.68 -1.7 1.36 0 0 Z " fill="#8987CF" transform="translate(38,78)"/>
</svg>
